<?xml version="1.0" encoding="iso-8859-1"?>
<!-- Uploaded to: SVG Repo, www.svgrepo.com, Generator: SVG Repo Mixer Tools -->
<svg fill="#000000" height="800px" width="800px" version="1.1" id="Layer_1" xmlns="http://www.w3.org/2000/svg" xmlns:xlink="http://www.w3.org/1999/xlink" 
	 viewBox="0 0 512 512" xml:space="preserve">
<g>
	<g>
		<g>
			<path d="M433.402,74.73h-23.358l-12.627-59.074C395.465,6.525,387.397,0,378.06,0H133.939c-9.337,0-17.405,6.525-19.357,15.656
				L101.955,74.73H78.598c-10.931,0-19.794,8.862-19.794,19.794s8.862,19.794,19.794,19.794h20.353
				c0.375,9.316,14.844,369.561,15.211,378.683c0.425,10.615,9.154,18.999,19.777,18.999H378.06
				c10.623,0,19.352-8.385,19.778-18.999c0.36-8.959,14.781-367.985,15.211-378.683h20.353c10.931,0,19.794-8.862,19.794-19.794
				S444.333,74.73,433.402,74.73z M149.948,39.588h212.101l7.511,35.142H142.437L149.948,39.588z M359.045,472.412H152.954
				l-2.435-60.61h210.96L359.045,472.412z M363.071,372.216H148.929l-6.334-157.7h226.809L363.071,372.216z M370.995,174.929
				H141.004l-2.435-60.611h234.86L370.995,174.929z"/>
			<circle cx="255.999" cy="293.371" r="49.521"/>
		</g>
	</g>
</g>
</svg>